<?xml version="1.0" encoding="UTF-8" standalone="no"?>
<!-- Created with Inkscape (http://www.inkscape.org/) -->

<svg
   xmlns:dc="http://purl.org/dc/elements/1.1/"
   xmlns:cc="http://creativecommons.org/ns#"
   xmlns:rdf="http://www.w3.org/1999/02/22-rdf-syntax-ns#"
   xmlns:svg="http://www.w3.org/2000/svg"
   xmlns="http://www.w3.org/2000/svg"
   xmlns:sodipodi="http://sodipodi.sourceforge.net/DTD/sodipodi-0.dtd"
   xmlns:inkscape="http://www.inkscape.org/namespaces/inkscape"
   version="1.0"
   width="1379.9589"
   height="955.68878"
   id="svg2184"
   inkscape:version="0.48.4 r9939"
   sodipodi:docname="background.svg">
  <metadata
     id="metadata80">
    <rdf:RDF>
      <cc:Work
         rdf:about="">
        <dc:format>image/svg+xml</dc:format>
        <dc:type
           rdf:resource="http://purl.org/dc/dcmitype/StillImage" />
      </cc:Work>
    </rdf:RDF>
  </metadata>
  <sodipodi:namedview
     pagecolor="#ffffff"
     bordercolor="#666666"
     borderopacity="1"
     objecttolerance="10"
     gridtolerance="10"
     guidetolerance="10"
     inkscape:pageopacity="0"
     inkscape:pageshadow="2"
     inkscape:window-width="1920"
     inkscape:window-height="1028"
     id="namedview78"
     showgrid="false"
     inkscape:zoom="0.77683475"
     inkscape:cx="1050.6864"
     inkscape:cy="482.57492"
     inkscape:window-x="0"
     inkscape:window-y="0"
     inkscape:window-maximized="1"
     inkscape:current-layer="svg2184" />
  <defs
     id="defs2186" />
  <path
     id="path5705"
     style="color:#000000;fill:none;stroke:#000000;stroke-width:3.54330707;stroke-linecap:round;stroke-linejoin:miter;stroke-miterlimit:4;stroke-opacity:1;stroke-dashoffset:0;marker:none;visibility:visible;display:inline;overflow:visible;enable-background:accumulate"
     d="m 770.18725,898.06264 -64.4156,-0.23995 -32,-55.90551 32.4156,-55.66558 64.4156,0.23995 32,55.90552 -32.4156,55.66557 z m -95.99995,-56 -64.4156,-0.23995 -32,-55.90551 32.4156,-55.66558 64.4156,0.23995 32,55.90552 -32.4156,55.66557 z m -0.4156,111.76 -64.4156,-0.23995 -32,-55.90551 32.4156,-55.66558 64.4156,0.23995 32,55.90552 -32.4156,55.66557 z m -96,-56 -64.4156,-0.23995 -32,-55.90551 32.4156,-55.66558 64.4156,0.23995 32,55.90552 -32.4156,55.66557 z m 576.4156,0.3344 -64.4156,-0.23994 -32,-55.90552 32.4156,-55.66558 64.4156,0.23995 32,55.90552 -32.4156,55.66557 z m -96,-56 -64.41565,-0.23994 -32,-55.90552 32.4156,-55.66558 64.41565,0.23995 32,55.90552 -32.4156,55.66557 z m -0.4156,111.7601 -64.41565,-0.23995 -32,-55.90551 32.4156,-55.66558 64.41565,0.23995 32,55.90552 -32.4156,55.66557 z m -96.00005,-56 -64.4156,-0.23995 -32,-55.90551 32.4156,-55.66558 64.4156,0.23995 32,55.90552 -32.4156,55.66557 z m -479.16875,-55.5201 -64.4156,-0.23995 -32,-55.90551 32.4156,-55.66558 64.4156,0.23995 32,55.90552 -32.4156,55.66557 z m -96,-56 -64.4156,-0.23995 -32,-55.90551 32.4156,-55.66558 64.4156,0.23995 32,55.90552 -32.4156,55.66557 z m -0.4156,111.76 -64.4156,-0.23994 -32,-55.90552 32.4156,-55.66558 64.4156,0.23995 32,55.90552 -32.4156,55.66557 z m -96,-56 -64.4156,-0.23994 -32,-55.90552 32.4156,-55.66558 64.4156,0.23995 32,55.90552 -32.4156,55.66557 z m 0.4156,-335.66554 -64.4156,-0.23995 -32,-55.90551 32.4156,-55.66558 64.4156,0.23995 32,55.90552 -32.4156,55.66557 z m -96,-56 -64.4156,-0.23995 -31.999999,-55.90551 32.415599,-55.66558 64.4156,0.23995 32,55.90552 -32.4156,55.66557 z m -0.4156,111.76005 -64.4156,-0.23994 -31.999999,-55.90552 32.415599,-55.66558 64.4156,0.23995 32,55.90552 -32.4156,55.66557 z m -96,-56 L 33.771701,506.01161 1.7717008,450.10609 34.1873,394.44051 l 64.4156,0.23995 32,55.90552 -32.4156,55.66557 z m 288,167.81109 -64.4156,-0.23995 -32,-55.90551 32.4156,-55.66558 64.4156,0.23995 32,55.90552 -32.4156,55.66557 z m -96,-56 -64.4156,-0.23995 -32,-55.90551 32.4156,-55.66558 64.4156,0.23995 32,55.90552 -32.4156,55.66557 z m -0.4156,111.76 -64.4156,-0.23995 -32,-55.90551 32.4156,-55.66558 64.4156,0.23995 32,55.90552 -32.4156,55.66557 z m -96,-56 -64.4156,-0.23995 -31.999999,-55.90551 32.415599,-55.66558 64.4156,0.23995 32,55.90552 -32.4156,55.66557 z m 671.58435,-504.23995 -64.4156,-0.23995 -32,-55.90551 32.4156,-55.665578 64.4156,0.239946 32,55.905522 -32.4156,55.66557 z m -96,-56 -64.4156,-0.23995 -32,-55.905515 32.4156,-55.665573 64.4156,0.239946 32,55.905518 -32.4156,55.665574 z m -0.4156,111.76005 -64.4156,-0.23995 -32,-55.90551 32.4156,-55.66558 64.4156,0.23995 32,55.90552 -32.4156,55.66557 z m -95.99995,-55.99999 -64.4156,-0.23995 -32,-55.90552 32.4156,-55.665568 64.4156,0.239946 32,55.905522 -32.4156,55.66557 z m 387.0185,114.01159 -64.41565,-0.23995 -32,-55.90551 32.4156,-55.66558 64.41565,0.23995 32,55.90552 -32.4156,55.66557 z m -98.18735,54.56278 -64.4156,-0.23994 -32,-55.90552 32.4156,-55.66558 64.4156,0.23995 32,55.90552 -32.4156,55.66557 z m -96,-56 -64.4156,-0.23994 -32,-55.90552 32.4156,-55.66558 64.4156,0.23995 32,55.90552 -32.4156,55.66557 z m -0.4156,111.76005 -64.4156,-0.23995 -32,-55.90551 32.4156,-55.66558 64.4156,0.23995 32,55.90552 -32.4156,55.66557 z m -96,-56 -64.4156,-0.23995 -32,-55.90551 32.4156,-55.66558 64.4156,0.23995 32,55.90552 -32.4156,55.66557 z m 576.41565,224.23996 -64.4156,-0.23995 -32,-55.90551 32.4156,-55.66558 64.4156,0.23995 32,55.90552 -32.4156,55.66557 z m -96,-56 -64.4156,-0.23995 -32,-55.90551 32.4156,-55.66558 64.4156,0.23995 32,55.90552 -32.4156,55.66557 z m -0.4157,111.76011 -64.4156,-0.23995 -32,-55.90551 32.4156,-55.66558 64.4156,0.23995 32,55.90552 -32.4156,55.66557 z m -96,-56.00006 -64.4156,-0.23995 -32,-55.90551 32.4156,-55.66558 64.4156,0.23995 32,55.90552 -32.4156,55.66557 z m 0,111.99996 -64.4156,-0.23995 -32,-55.90551 32.4156,-55.66558 64.4156,0.23995 32,55.90552 -32.4156,55.66557 z m -96,-56 -64.41555,-0.23995 -32,-55.90551 32.4156,-55.66558 64.41565,0.23995 32,55.90552 -32.4157,55.66557 z m -0.4155,111.7601 -64.41565,-0.23995 -32,-55.90551 32.4156,-55.66558 64.41565,0.23995 32,55.90552 -32.4156,55.66557 z m -96.00005,-56 -64.4156,-0.23995 -32,-55.90551 32.4156,-55.66558 64.4156,0.23995 32,55.90552 -32.4156,55.66557 z m 96.00005,-168.09451 -64.41565,-0.23994 -32,-55.90552 32.4156,-55.66558 64.41565,0.23995 32,55.90552 -32.4156,55.66557 z m -96.00005,-55.99999 -64.4156,-0.23994 -32,-55.90552 32.4156,-55.66558 64.4156,0.23995 32,55.90552 -32.4156,55.66557 z m -0.4156,111.76005 -64.4156,-0.23995 -32,-55.90551 32.4156,-55.66558 64.4156,0.23995 32,55.90552 -32.4156,55.66557 z m -96,-56 -64.4156,-0.23995 -32,-55.90551 32.4156,-55.66558 64.4156,0.23995 32,55.90552 -32.4156,55.66557 z m 97.6624,281.05425 -64.4156,-0.23994 -32,-55.90552 32.4156,-55.66558 64.4156,0.23995 32,55.90552 -32.4156,55.66557 z m -96,-56 -64.4156,-0.23994 -32,-55.90552 32.4156,-55.66558 64.4156,0.23995 32,55.90552 -32.4156,55.66557 z m -0.4156,111.7601 -64.4156,-0.23995 -32,-55.90551 32.4156,-55.66558 64.4156,0.23995 32,55.90552 -32.4156,55.66557 z m -96,-56 -64.4156,-0.23995 -32,-55.90551 32.4156,-55.66558 64.4156,0.23995 32,55.90552 -32.4156,55.66557 z m 96,-168.0945 -64.4156,-0.23995 -32,-55.90551 32.4156,-55.66558 64.4156,0.23995 32,55.90552 -32.4156,55.66557 z m -96,-56 -64.4156,-0.23995 -32,-55.90551 32.4156,-55.66558 64.4156,0.23995 32,55.90552 -32.4156,55.66557 z m -0.4156,111.7601 -64.4156,-0.23995 -32,-55.90551 32.4156,-55.66558 64.4156,0.23995 32,55.90552 -32.4156,55.66557 z m -95.99995,-56 -64.4156,-0.23995 -32,-55.90551 32.4156,-55.66558 64.4156,0.23995 32,55.90552 -32.4156,55.66557 z m 1.2468,112.9088 -64.4156,-0.23995 -32,-55.90551 32.4156,-55.66558 64.4156,0.23995 32,55.90552 -32.4156,55.66557 z m -96,-56 -64.4156,-0.23995 -32,-55.90551 32.4156,-55.66558 64.4156,0.23995 32,55.90552 -32.4156,55.66557 z m -0.4156,111.76 -64.4156,-0.23995 -32,-55.90551 32.4156,-55.66558 64.4156,0.23995 32,55.90552 -32.4156,55.66557 z m -96,-56 -64.4156,-0.23995 -32,-55.90551 32.4156,-55.66558 64.4156,0.23995 32,55.90552 -32.4156,55.66557 z m 96,-168.09448 -64.4156,-0.23995 -32,-55.90551 32.4156,-55.66558 64.4156,0.23995 32,55.90552 -32.4156,55.66557 z m -96,-55.99999 -64.4156,-0.23995 -32,-55.90551 32.4156,-55.66558 64.4156,0.23995 32,55.90552 -32.4156,55.66557 z m -0.4156,111.76007 -64.4156,-0.23995 -32,-55.90551 32.4156,-55.66558 64.4156,0.23995 32,55.90552 -32.4156,55.66557 z m -96,-56.00002 -64.4156,-0.23994 -32,-55.90552 32.4156,-55.66558 64.4156,0.23995 32,55.90552 -32.4156,55.66557 z m 383.99995,-112.09448 -64.4156,-0.23995 -32,-55.90551 32.4156,-55.66558 64.4156,0.23995 32,55.90552 -32.4156,55.66557 z m -95.99995,-56 -64.4156,-0.23995 -32,-55.90551 32.4156,-55.66558 64.4156,0.23995 32,55.90552 -32.4156,55.66557 z m -0.4156,111.76005 -64.4156,-0.23994 -32,-55.90552 32.4156,-55.66558 64.4156,0.23995 32,55.90552 -32.4156,55.66557 z m -96,-56 -64.4156,-0.23994 -32,-55.90552 32.4156,-55.66558 64.4156,0.23995 32,55.90552 -32.4156,55.66557 z m 96,-168.09449 -64.4156,-0.23995 -32,-55.90551 32.4156,-55.66558 64.4156,0.23995 32,55.90552 -32.4156,55.66557 z m -96,-55.99999 -64.4156,-0.23995 -32,-55.90551 32.4156,-55.66558 64.4156,0.23995 32,55.90552 -32.4156,55.66557 z m -0.4156,111.76005 -64.4156,-0.23994 -32,-55.90552 32.4156,-55.66558 64.4156,0.23995 32,55.90552 -32.4156,55.66557 z m -96,-56 -64.4156,-0.23995 -32,-55.90551 32.4156,-55.66558 64.4156,0.23995 32,55.90552 -32.4156,55.66557 z m 1.2468,112.90881 -64.4156,-0.23995 -32,-55.90551 32.4156,-55.66558 64.4156,0.23995 32,55.90552 -32.4156,55.66557 z m -96,-56 -64.4156,-0.23995 -32,-55.90551 32.4156,-55.66558 64.4156,0.23995 32,55.90552 -32.4156,55.66557 z m -0.4156,111.76005 -64.4156,-0.23994 -32,-55.90552 32.4156,-55.66558 64.4156,0.23995 32,55.90552 -32.4156,55.66557 z m -96,-56 -64.4156,-0.23994 -32,-55.90552 32.4156,-55.66558 64.4156,0.23995 32,55.90552 -32.4156,55.66557 z m 96,-168.09448 -64.4156,-0.23995 -32,-55.90551 32.4156,-55.66558 64.4156,0.23995 32,55.90552 -32.4156,55.66557 z m -96,-56 -64.4156,-0.23995 -32,-55.90551 32.4156,-55.665578 64.4156,0.239946 32,55.905522 -32.4156,55.66557 z m -0.4156,111.76005 -64.4156,-0.23994 -32,-55.90552 32.4156,-55.66558 64.4156,0.23995 32,55.90552 -32.4156,55.66557 z m -96,-56 -64.4156,-0.23995 -31.999999,-55.90551 32.415599,-55.66558 64.4156,0.23995 32,55.90552 -32.4156,55.66557 z" />
</svg>
