<?xml version="1.0" encoding="utf-8"?>
<!-- Generated by IcoMoon.io -->
<!DOCTYPE svg PUBLIC "-//W3C//DTD SVG 1.1//EN" "http://www.w3.org/Graphics/SVG/1.1/DTD/svg11.dtd">
<svg version="1.1" xmlns="http://www.w3.org/2000/svg" xmlns:xlink="http://www.w3.org/1999/xlink" width="416" height="448" viewBox="0 0 416 448"><g id="icomoon-ignore">
</g>
<path d="M64.063 247.25v64.75q0 29.75 21.125 50.875t50.875 21.125h208q29.75 0 50.875-21.125t21.125-50.875v-208q0-29.75-21.125-50.875t-50.875-21.125h-63.75q-3.25 0-5.625 2.375t-2.375 5.625q0 6.75 6.5 8 19.25 6.5 33.25 15 2.5 1 4 1h28q16.5 0 28.25 11.75t11.75 28.25v208q0 16.5-11.75 28.25t-28.25 11.75h-208q-16.5 0-28.25-11.75t-11.75-28.25v-53.5q0-4.75-4.5-7.25-7-3.25-13.5-9.25-4-4-8.75-2-5.25 2.25-5.25 7.25zM4.813 123.25l96 96q4.5 4.75 11.25 4.75 3 0 6.25-1.25 9.75-4.25 9.75-14.75v-48h40q80.75 0 109.5 32.75 29.75 34.25 18.5 118.25-0.75 5.75 5 8.5 2 0.5 3 0.5 4 0 6.5-3.25 2.5-3.5 5.25-7.75t9.875-17.125 12.375-24.875 9.625-28.5 4.375-30.5q0-12.25-0.875-22.75t-3.5-22.5-7-22-11.75-20.375-17.125-18.5-23.625-15.375-31.125-12.125-39.875-7.625-49.125-2.75h-40v-48q0-10.5-9.75-14.75-3.25-1.25-6.25-1.25-6.5 0-11.25 4.75l-96 96q-4.75 4.75-4.75 11.25t4.75 11.25z"></path>
</svg>
